# xmcd
#
# Track frame offsets: 
#        150
#        10602
#        20923
#        32845
#        43602
#        53803
#        64470
#        78251
#        92086
#        102082
#        115115
#        127080
#        134934
#        151126
#        162157
#        177105
#        185372
#        194144
#        207545
#        227404
#        237545
#        249534
#
# Disc length: 3487 seconds
#
# Revision: 0
# Processed by: cddbd v1.5.1PL0 Copyright (c) Steve Scherf et al.
# Submitted via: ExactAudioCopy v0.95b2
#
DISCID=370d9d16
DTITLE=Rangers - Nejvetsi pecky
DYEAR=2002
DGENRE=Country
TTITLE0=Zvednete kotvy
TTITLE1=Ta zem je tva zem
TTITLE2=Kingston Town
TTITLE3=Orchidej
TTITLE4=Vim, vim
TTITLE5=Neplac mala
TTITLE6=Colorado
TTITLE7=500 mil
TTITLE8=Zlaty zvony
TTITLE9=Smutny psani
TTITLE10=Mam radost
TTITLE11=Modry mesic
TTITLE12=Pole s bavlnou
TTITLE13=Kral silnic
TTITLE14=Vysocina
TTITLE15=Plavci
TTITLE16=Oh Shenando
TTITLE17=Nos pro trable
TTITLE18=Kopej hrob muj
TTITLE19=Tece voda
TTITLE20=Tulak
TTITLE21=Laska je vec kouzelna
EXTD=
EXTT0=
EXTT1=
EXTT2=
EXTT3=
EXTT4=
EXTT5=
EXTT6=
EXTT7=
EXTT8=
EXTT9=
EXTT10=
EXTT11=
EXTT12=
EXTT13=
EXTT14=
EXTT15=
EXTT16=
EXTT17=
EXTT18=
EXTT19=
EXTT20=
EXTT21=
PLAYORDER=
